Katibeh-Regular.ufo
<glyph name="footnotemarker-ar" format="1">
  <advance width="600"/>
  <unicode hex="0602"/>
  <outline>
    <contour>
      <point x="-65" y="-34" type="line"/>
      <point x="-57" y="-20"/>
      <point x="-54" y="1"/>
      <point x="-54" y="12" type="curve"/>
      <point x="-53" y="39" type="line" smooth="yes"/>
      <point x="-52" y="74"/>
      <point x="-59" y="117"/>
      <point x="-91" y="149" type="curve" smooth="yes"/>
      <point x="-106" y="164"/>
      <point x="-133" y="181"/>
      <point x="-163" y="181" type="curve" smooth="yes"/>
      <point x="-228" y="181"/>
      <point x="-231" y="104"/>
      <point x="-231" y="68" type="curve" smooth="yes"/>
      <point x="-230" y="27" type="line" smooth="yes"/>
      <point x="-230" y="-80"/>
      <point x="-172" y="-140"/>
      <point x="-38" y="-140" type="curve"/>
      <point x="660" y="-140" type="line"/>
      <point x="726" y="-29" type="line"/>
      <point x="683" y="-32"/>
      <point x="594" y="-34"/>
      <point x="521" y="-34" type="curve" smooth="yes"/>
    </contour>
    <contour>
      <point x="-157" y="5"/>
      <point x="-187" y="24"/>
      <point x="-207" y="58" type="curve"/>
      <point x="-207" y="58"/>
      <point x="-185" y="77"/>
      <point x="-151" y="77" type="curve" smooth="yes"/>
      <point x="-123" y="77"/>
      <point x="-94" y="64"/>
      <point x="-73" y="33" type="curve"/>
      <point x="-73" y="33"/>
      <point x="-89" y="2"/>
      <point x="-120" y="-9" type="curve"/>
    </contour>
  </outline>
</glyph>
<glyph name="verseComma-ar" format="1">
  <advance width="641"/>
  <unicode hex="060E"/>
  <outline>
    <contour>
      <point x="75" y="80" type="line"/>
      <point x="82" y="75"/>
      <point x="89" y="73"/>
      <point x="93" y="73" type="curve"/>
      <point x="97" y="74" type="line"/>
      <point x="97" y="52"/>
      <point x="109" y="38"/>
      <point x="119" y="34" type="curve"/>
      <point x="114" y="24"/>
      <point x="120" y="12"/>
      <point x="120" y="12" type="curve" smooth="yes"/>
      <point x="120" y="12"/>
      <point x="124" y="25"/>
      <point x="144" y="25" type="curve" smooth="yes"/>
      <point x="149" y="25"/>
      <point x="154" y="26"/>
      <point x="159" y="28" type="curve"/>
      <point x="161" y="20"/>
      <point x="168" y="14"/>
      <point x="176" y="14" type="curve" smooth="yes"/>
      <point x="182" y="14"/>
      <point x="187" y="17"/>
      <point x="190" y="21" type="curve"/>
      <point x="190" y="22" type="line" smooth="yes"/>
      <point x="191" y="22"/>
      <point x="192" y="23"/>
      <point x="192" y="24" type="curve"/>
      <point x="197" y="33"/>
      <point x="194" y="43"/>
      <point x="187" y="49" type="curve"/>
      <point x="192" y="54" type="line"/>
      <point x="203" y="25" type="line"/>
      <point x="201" y="22"/>
      <point x="201" y="20"/>
      <point x="201" y="17" type="curve" smooth="yes"/>
      <point x="201" y="7"/>
      <point x="209" y="-2"/>
      <point x="218" y="-2" type="curve" smooth="yes"/>
      <point x="221" y="-2"/>
      <point x="223" y="-1"/>
      <point x="224" y="-1" type="curve"/>
      <point x="235" y="-10"/>
      <point x="248" y="-15"/>
      <point x="262" y="-15" type="curve" smooth="yes"/>
      <point x="264" y="-15" type="line" smooth="yes"/>
      <point x="281" y="-15"/>
      <point x="296" y="-6"/>
      <point x="303" y="-2" type="curve"/>
      <point x="307" y="-8"/>
      <point x="314" y="-10"/>
      <point x="320" y="-10" type="curve" smooth="yes"/>
      <point x="327" y="-10"/>
      <point x="334" y="-8"/>
      <point x="338" y="-2" type="curve"/>
      <point x="345" y="-6"/>
      <point x="360" y="-15"/>
      <point x="377" y="-15" type="curve" smooth="yes"/>
      <point x="379" y="-15" type="line" smooth="yes"/>
      <point x="393" y="-15"/>
      <point x="405" y="-10"/>
      <point x="417" y="-1" type="curve"/>
      <point x="418" y="-1"/>
      <point x="420" y="-2"/>
      <point x="423" y="-2" type="curve" smooth="yes"/>
      <point x="432" y="-2"/>
      <point x="440" y="7"/>
      <point x="440" y="17" type="curve" smooth="yes"/>
      <point x="440" y="20"/>
      <point x="440" y="22"/>
      <point x="438" y="25" type="curve"/>
      <point x="449" y="54" type="line"/>
      <point x="454" y="49" type="line"/>
      <point x="447" y="43"/>
      <point x="444" y="33"/>
      <point x="449" y="24" type="curve"/>
      <point x="449" y="23"/>
      <point x="450" y="22"/>
      <point x="451" y="22" type="curve" smooth="yes"/>
      <point x="451" y="21" type="line"/>
      <point x="454" y="17"/>
      <point x="459" y="14"/>
      <point x="464" y="14" type="curve" smooth="yes"/>
      <point x="473" y="14"/>
      <point x="480" y="20"/>
      <point x="482" y="28" type="curve"/>
      <point x="487" y="26"/>
      <point x="492" y="25"/>
      <point x="497" y="25" type="curve" smooth="yes"/>
      <point x="517" y="25"/>
      <point x="521" y="12"/>
      <point x="521" y="12" type="curve" smooth="yes"/>
      <point x="521" y="12"/>
      <point x="527" y="24"/>
      <point x="521" y="34" type="curve"/>
      <point x="532" y="38"/>
      <point x="544" y="52"/>
      <point x="544" y="74" type="curve"/>
      <point x="548" y="73" type="line"/>
      <point x="552" y="73"/>
      <point x="558" y="75"/>
      <point x="566" y="80" type="curve"/>
      <point x="601" y="105" type="line"/>
      <point x="566" y="130" type="line"/>
      <point x="558" y="135"/>
      <point x="552" y="137"/>
      <point x="548" y="137" type="curve"/>
      <point x="544" y="136" type="line"/>
      <point x="544" y="159"/>
      <point x="532" y="172"/>
      <point x="521" y="176" type="curve"/>
      <point x="527" y="186"/>
      <point x="521" y="198"/>
      <point x="521" y="198" type="curve" smooth="yes"/>
      <point x="521" y="198"/>
      <point x="517" y="185"/>
      <point x="497" y="185" type="curve" smooth="yes"/>
      <point x="492" y="185"/>
      <point x="487" y="184"/>
      <point x="482" y="182" type="curve"/>
      <point x="480" y="190"/>
      <point x="473" y="196"/>
      <point x="464" y="196" type="curve" smooth="yes"/>
      <point x="459" y="196"/>
      <point x="454" y="193"/>
      <point x="451" y="189" type="curve"/>
      <point x="451" y="188" type="line" smooth="yes"/>
      <point x="450" y="188"/>
      <point x="449" y="187"/>
      <point x="449" y="186" type="curve"/>
      <point x="444" y="177"/>
      <point x="447" y="167"/>
      <point x="454" y="161" type="curve"/>
      <point x="449" y="156" type="line"/>
      <point x="438" y="185" type="line"/>
      <point x="440" y="188"/>
      <point x="440" y="190"/>
      <point x="440" y="193" type="curve" smooth="yes"/>
      <point x="440" y="203"/>
      <point x="432" y="212"/>
      <point x="423" y="212" type="curve" smooth="yes"/>
      <point x="420" y="212"/>
      <point x="418" y="211"/>
      <point x="417" y="211" type="curve"/>
      <point x="405" y="220"/>
      <point x="393" y="225"/>
      <point x="379" y="225" type="curve" smooth="yes"/>
      <point x="377" y="225" type="line" smooth="yes"/>
      <point x="360" y="225"/>
      <point x="345" y="216"/>
      <point x="338" y="212" type="curve"/>
      <point x="334" y="218"/>
      <point x="327" y="220"/>
      <point x="320" y="220" type="curve" smooth="yes"/>
      <point x="314" y="220"/>
      <point x="307" y="218"/>
      <point x="303" y="212" type="curve"/>
      <point x="296" y="216"/>
      <point x="281" y="225"/>
      <point x="264" y="225" type="curve" smooth="yes"/>
      <point x="262" y="225" type="line" smooth="yes"/>
      <point x="248" y="225"/>
      <point x="235" y="220"/>
      <point x="224" y="211" type="curve"/>
      <point x="223" y="211"/>
      <point x="221" y="212"/>
      <point x="218" y="212" type="curve" smooth="yes"/>
      <point x="209" y="212"/>
      <point x="201" y="203"/>
      <point x="201" y="193" type="curve" smooth="yes"/>
      <point x="201" y="190"/>
      <point x="201" y="188"/>
      <point x="203" y="185" type="curve"/>
      <point x="192" y="156" type="line"/>
      <point x="187" y="161" type="line"/>
      <point x="194" y="167"/>
      <point x="197" y="177"/>
      <point x="192" y="186" type="curve"/>
      <point x="192" y="187"/>
      <point x="191" y="188"/>
      <point x="190" y="188" type="curve" smooth="yes"/>
      <point x="190" y="189" type="line"/>
      <point x="187" y="193"/>
      <point x="182" y="196"/>
      <point x="176" y="196" type="curve" smooth="yes"/>
      <point x="168" y="196"/>
      <point x="161" y="190"/>
      <point x="159" y="182" type="curve"/>
      <point x="154" y="184"/>
      <point x="149" y="185"/>
      <point x="144" y="185" type="curve" smooth="yes"/>
      <point x="124" y="185"/>
      <point x="120" y="198"/>
      <point x="120" y="198" type="curve" smooth="yes"/>
      <point x="120" y="198"/>
      <point x="114" y="186"/>
      <point x="119" y="176" type="curve"/>
      <point x="109" y="172"/>
      <point x="97" y="159"/>
      <point x="97" y="136" type="curve"/>
      <point x="93" y="137" type="line"/>
      <point x="89" y="137"/>
      <point x="82" y="135"/>
      <point x="75" y="130" type="curve"/>
      <point x="40" y="105" type="line"/>
    </contour>
    <contour>
      <point x="64" y="105"/>
      <point x="73" y="113"/>
      <point x="87" y="113" type="curve" smooth="yes"/>
      <point x="100" y="113"/>
      <point x="106" y="105"/>
      <point x="106" y="105" type="curve" smooth="yes"/>
      <point x="106" y="105"/>
      <point x="100" y="97"/>
      <point x="87" y="97" type="curve" smooth="yes"/>
      <point x="73" y="97"/>
      <point x="64" y="105"/>
      <point x="64" y="105" type="curve" smooth="yes"/>
    </contour>
    <contour>
      <point x="112" y="75"/>
      <point x="111" y="81"/>
      <point x="113" y="88" type="curve"/>
      <point x="123" y="81"/>
      <point x="133" y="78"/>
      <point x="142" y="78" type="curve" smooth="yes"/>
      <point x="154" y="78"/>
      <point x="165" y="82"/>
      <point x="174" y="90" type="curve"/>
      <point x="176" y="86"/>
      <point x="179" y="80"/>
      <point x="182" y="74" type="curve"/>
      <point x="166" y="47"/>
      <point x="149" y="45"/>
      <point x="144" y="45" type="curve" smooth="yes"/>
      <point x="136" y="45"/>
      <point x="126" y="49"/>
      <point x="126" y="54" type="curve"/>
      <point x="126" y="61"/>
      <point x="133" y="62"/>
      <point x="136" y="62" type="curve"/>
      <point x="135" y="64"/>
      <point x="129" y="77"/>
      <point x="118" y="76" type="curve" smooth="yes"/>
      <point x="116" y="76"/>
      <point x="115" y="76"/>
      <point x="112" y="75" type="curve"/>
    </contour>
    <contour>
      <point x="115" y="134"/>
      <point x="116" y="134"/>
      <point x="118" y="134" type="curve" smooth="yes"/>
      <point x="129" y="133"/>
      <point x="136" y="148"/>
      <point x="136" y="148" type="curve" smooth="yes"/>
      <point x="132" y="148"/>
      <point x="126" y="149"/>
      <point x="126" y="156" type="curve"/>
      <point x="126" y="161"/>
      <point x="136" y="165"/>
      <point x="144" y="165" type="curve" smooth="yes"/>
      <point x="149" y="165"/>
      <point x="166" y="163"/>
      <point x="182" y="136" type="curve"/>
      <point x="179" y="130"/>
      <point x="176" y="124"/>
      <point x="174" y="120" type="curve"/>
      <point x="165" y="128"/>
      <point x="154" y="132"/>
      <point x="142" y="132" type="curve" smooth="yes"/>
      <point x="133" y="132"/>
      <point x="123" y="129"/>
      <point x="113" y="122" type="curve"/>
      <point x="111" y="129"/>
      <point x="112" y="135"/>
      <point x="112" y="135" type="curve"/>
    </contour>
    <contour>
      <point x="117" y="105"/>
      <point x="128" y="115"/>
      <point x="143" y="115" type="curve" smooth="yes"/>
      <point x="162" y="115"/>
      <point x="170" y="105"/>
      <point x="170" y="105" type="curve" smooth="yes"/>
      <point x="170" y="105"/>
      <point x="162" y="95"/>
      <point x="143" y="95" type="curve" smooth="yes"/>
      <point x="128" y="95"/>
      <point x="117" y="105"/>
      <point x="117" y="105" type="curve" smooth="yes"/>
    </contour>
    <contour>
      <point x="180" y="105"/>
      <point x="190" y="119"/>
      <point x="193" y="127" type="curve"/>
      <point x="197" y="120"/>
      <point x="207" y="105"/>
      <point x="207" y="105" type="curve" smooth="yes"/>
      <point x="207" y="105"/>
      <point x="197" y="90"/>
      <point x="193" y="84" type="curve"/>
      <point x="190" y="91"/>
      <point x="180" y="105"/>
      <point x="180" y="105" type="curve" smooth="yes"/>
    </contour>
    <contour>
      <point x="216" y="81" type="line"/>
      <point x="217" y="77"/>
      <point x="228" y="66"/>
      <point x="238" y="65" type="curve"/>
      <point x="236" y="61"/>
      <point x="234" y="54"/>
      <point x="233" y="44" type="curve"/>
      <point x="233" y="38"/>
      <point x="233" y="34"/>
      <point x="232" y="29" type="curve"/>
      <point x="228" y="35"/>
      <point x="221" y="36"/>
      <point x="219" y="36" type="curve" smooth="yes"/>
      <point x="218" y="36" type="line"/>
      <point x="216" y="45"/>
      <point x="228" y="47"/>
      <point x="228" y="47" type="curve" smooth="yes"/>
      <point x="228" y="47"/>
      <point x="229" y="71"/>
      <point x="208" y="71" type="curve"/>
    </contour>
    <contour>
      <point x="229" y="139"/>
      <point x="228" y="163"/>
      <point x="228" y="163" type="curve" smooth="yes"/>
      <point x="228" y="163"/>
      <point x="216" y="165"/>
      <point x="218" y="174" type="curve"/>
      <point x="219" y="174" type="line" smooth="yes"/>
      <point x="221" y="174"/>
      <point x="228" y="175"/>
      <point x="232" y="181" type="curve"/>
      <point x="233" y="177"/>
      <point x="233" y="172"/>
      <point x="233" y="166" type="curve"/>
      <point x="234" y="156"/>
      <point x="236" y="149"/>
      <point x="238" y="145" type="curve"/>
      <point x="228" y="144"/>
      <point x="217" y="133"/>
      <point x="216" y="129" type="curve"/>
      <point x="208" y="139" type="line"/>
    </contour>
    <contour>
      <point x="222" y="105"/>
      <point x="238" y="115"/>
      <point x="256" y="115" type="curve" smooth="yes"/>
      <point x="280" y="115"/>
      <point x="292" y="105"/>
      <point x="292" y="105" type="curve" smooth="yes"/>
      <point x="292" y="105"/>
      <point x="280" y="95"/>
      <point x="256" y="95" type="curve" smooth="yes"/>
      <point x="238" y="95"/>
      <point x="222" y="105"/>
      <point x="222" y="105" type="curve" smooth="yes"/>
    </contour>
    <contour>
      <point x="245" y="15"/>
      <point x="247" y="20"/>
      <point x="249" y="25" type="curve"/>
      <point x="252" y="23"/>
      <point x="255" y="22"/>
      <point x="258" y="22" type="curve" smooth="yes"/>
      <point x="266" y="22"/>
      <point x="272" y="28"/>
      <point x="272" y="28" type="curve" smooth="yes"/>
      <point x="272" y="28"/>
      <point x="267" y="31"/>
      <point x="267" y="36" type="curve"/>
      <point x="268" y="39"/>
      <point x="270" y="43"/>
      <point x="275" y="47" type="curve"/>
      <point x="281" y="52"/>
      <point x="290" y="58"/>
      <point x="290" y="69" type="curve" smooth="yes"/>
      <point x="290" y="74"/>
      <point x="287" y="79"/>
      <point x="283" y="83" type="curve"/>
      <point x="287" y="84"/>
      <point x="292" y="87"/>
      <point x="299" y="91" type="curve"/>
      <point x="307" y="83"/>
      <point x="311" y="66"/>
      <point x="311" y="53" type="curve"/>
      <point x="309" y="55"/>
      <point x="307" y="56"/>
      <point x="303" y="56" type="curve" smooth="yes"/>
      <point x="294" y="56"/>
      <point x="288" y="45"/>
      <point x="283" y="36" type="curve"/>
      <point x="276" y="23"/>
      <point x="269" y="10"/>
      <point x="251" y="10" type="curve" smooth="yes"/>
      <point x="249" y="10"/>
      <point x="245" y="11"/>
      <point x="242" y="11" type="curve"/>
    </contour>
    <contour>
      <point x="245" y="199"/>
      <point x="249" y="200"/>
      <point x="251" y="200" type="curve" smooth="yes"/>
      <point x="269" y="200"/>
      <point x="276" y="187"/>
      <point x="283" y="174" type="curve"/>
      <point x="288" y="165"/>
      <point x="294" y="154"/>
      <point x="303" y="154" type="curve" smooth="yes"/>
      <point x="307" y="154"/>
      <point x="309" y="155"/>
      <point x="311" y="157" type="curve"/>
      <point x="311" y="144"/>
      <point x="307" y="127"/>
      <point x="299" y="119" type="curve"/>
      <point x="292" y="123"/>
      <point x="287" y="126"/>
      <point x="283" y="127" type="curve"/>
      <point x="287" y="131"/>
      <point x="290" y="136"/>
      <point x="290" y="141" type="curve" smooth="yes"/>
      <point x="290" y="152"/>
      <point x="281" y="159"/>
      <point x="275" y="163" type="curve"/>
      <point x="270" y="167"/>
      <point x="268" y="171"/>
      <point x="267" y="174" type="curve"/>
      <point x="267" y="179"/>
      <point x="272" y="182"/>
      <point x="272" y="182" type="curve" smooth="yes"/>
      <point x="272" y="182"/>
      <point x="266" y="188"/>
      <point x="258" y="188" type="curve" smooth="yes"/>
      <point x="255" y="188"/>
      <point x="252" y="187"/>
      <point x="249" y="185" type="curve"/>
      <point x="247" y="190"/>
      <point x="245" y="195"/>
      <point x="242" y="199" type="curve"/>
    </contour>
    <contour>
      <point x="301" y="105"/>
      <point x="311" y="117"/>
      <point x="320" y="136" type="curve"/>
      <point x="330" y="117"/>
      <point x="340" y="105"/>
      <point x="340" y="105" type="curve" smooth="yes"/>
      <point x="340" y="105"/>
      <point x="330" y="93"/>
      <point x="320" y="74" type="curve"/>
      <point x="311" y="93"/>
      <point x="301" y="105"/>
      <point x="301" y="105" type="curve" smooth="yes"/>
    </contour>
    <contour>
      <point x="333" y="20"/>
      <point x="333" y="-3"/>
      <point x="320" y="-3" type="curve"/>
      <point x="309" y="-3"/>
      <point x="307" y="16"/>
      <point x="320" y="52" type="curve"/>
    </contour>
    <contour>
      <point x="330" y="66"/>
      <point x="334" y="83"/>
      <point x="342" y="91" type="curve"/>
      <point x="348" y="87"/>
      <point x="353" y="84"/>
      <point x="357" y="83" type="curve"/>
      <point x="353" y="79"/>
      <point x="351" y="74"/>
      <point x="351" y="69" type="curve" smooth="yes"/>
      <point x="351" y="58"/>
      <point x="360" y="52"/>
      <point x="366" y="47" type="curve"/>
      <point x="371" y="43"/>
      <point x="373" y="39"/>
      <point x="373" y="36" type="curve"/>
      <point x="373" y="31"/>
      <point x="369" y="28"/>
      <point x="369" y="28" type="curve" smooth="yes"/>
      <point x="369" y="28"/>
      <point x="375" y="22"/>
      <point x="383" y="22" type="curve" smooth="yes"/>
      <point x="386" y="22"/>
      <point x="389" y="23"/>
      <point x="392" y="25" type="curve"/>
      <point x="394" y="20"/>
      <point x="396" y="15"/>
      <point x="399" y="11" type="curve"/>
      <point x="396" y="11"/>
      <point x="392" y="10"/>
      <point x="389" y="10" type="curve" smooth="yes"/>
      <point x="372" y="10"/>
      <point x="365" y="23"/>
      <point x="357" y="36" type="curve"/>
      <point x="353" y="45"/>
      <point x="347" y="56"/>
      <point x="337" y="56" type="curve" smooth="yes"/>
      <point x="334" y="56"/>
      <point x="332" y="55"/>
      <point x="330" y="53" type="curve"/>
    </contour>
    <contour>
      <point x="332" y="155"/>
      <point x="334" y="154"/>
      <point x="337" y="154" type="curve" smooth="yes"/>
      <point x="347" y="154"/>
      <point x="353" y="165"/>
      <point x="357" y="174" type="curve"/>
      <point x="365" y="187"/>
      <point x="372" y="200"/>
      <point x="389" y="200" type="curve" smooth="yes"/>
      <point x="392" y="200"/>
      <point x="396" y="199"/>
      <point x="399" y="199" type="curve"/>
      <point x="396" y="195"/>
      <point x="394" y="190"/>
      <point x="392" y="185" type="curve"/>
      <point x="389" y="187"/>
      <point x="386" y="188"/>
      <point x="383" y="188" type="curve" smooth="yes"/>
      <point x="375" y="188"/>
      <point x="369" y="182"/>
      <point x="369" y="182" type="curve" smooth="yes"/>
      <point x="369" y="182"/>
      <point x="373" y="179"/>
      <point x="373" y="174" type="curve"/>
      <point x="373" y="171"/>
      <point x="371" y="167"/>
      <point x="366" y="163" type="curve"/>
      <point x="360" y="159"/>
      <point x="351" y="152"/>
      <point x="351" y="141" type="curve" smooth="yes"/>
      <point x="351" y="136"/>
      <point x="353" y="131"/>
      <point x="357" y="127" type="curve"/>
      <point x="353" y="126"/>
      <point x="348" y="123"/>
      <point x="342" y="119" type="curve"/>
      <point x="334" y="127"/>
      <point x="330" y="144"/>
      <point x="330" y="157" type="curve"/>
    </contour>
    <contour>
      <point x="348" y="105"/>
      <point x="361" y="115"/>
      <point x="385" y="115" type="curve" smooth="yes"/>
      <point x="403" y="115"/>
      <point x="419" y="105"/>
      <point x="419" y="105" type="curve" smooth="yes"/>
      <point x="419" y="105"/>
      <point x="403" y="95"/>
      <point x="385" y="95" type="curve" smooth="yes"/>
      <point x="361" y="95"/>
      <point x="348" y="105"/>
      <point x="348" y="105" type="curve" smooth="yes"/>
    </contour>
    <contour>
      <point x="413" y="66"/>
      <point x="423" y="77"/>
      <point x="425" y="81" type="curve"/>
      <point x="433" y="71" type="line"/>
      <point x="412" y="71"/>
      <point x="413" y="47"/>
      <point x="413" y="47" type="curve" smooth="yes"/>
      <point x="413" y="47"/>
      <point x="425" y="45"/>
      <point x="423" y="36" type="curve"/>
      <point x="422" y="36" type="line" smooth="yes"/>
      <point x="420" y="36"/>
      <point x="412" y="35"/>
      <point x="409" y="29" type="curve"/>
      <point x="408" y="34"/>
      <point x="407" y="38"/>
      <point x="407" y="44" type="curve"/>
      <point x="407" y="54"/>
      <point x="405" y="61"/>
      <point x="403" y="65" type="curve"/>
    </contour>
    <contour>
      <point x="405" y="149"/>
      <point x="407" y="156"/>
      <point x="407" y="166" type="curve"/>
      <point x="407" y="172"/>
      <point x="408" y="177"/>
      <point x="409" y="181" type="curve"/>
      <point x="412" y="175"/>
      <point x="420" y="174"/>
      <point x="422" y="174" type="curve" smooth="yes"/>
      <point x="423" y="174" type="line"/>
      <point x="425" y="165"/>
      <point x="413" y="163"/>
      <point x="413" y="163" type="curve" smooth="yes"/>
      <point x="413" y="163"/>
      <point x="412" y="139"/>
      <point x="433" y="139" type="curve"/>
      <point x="425" y="129" type="line"/>
      <point x="423" y="133"/>
      <point x="413" y="144"/>
      <point x="403" y="145" type="curve"/>
    </contour>
    <contour>
      <point x="434" y="105"/>
      <point x="444" y="120"/>
      <point x="448" y="127" type="curve"/>
      <point x="451" y="119"/>
      <point x="461" y="105"/>
      <point x="461" y="105" type="curve" smooth="yes"/>
      <point x="461" y="105"/>
      <point x="451" y="91"/>
      <point x="448" y="84" type="curve"/>
      <point x="444" y="90"/>
      <point x="434" y="105"/>
      <point x="434" y="105" type="curve" smooth="yes"/>
    </contour>
    <contour>
      <point x="462" y="80"/>
      <point x="465" y="86"/>
      <point x="467" y="90" type="curve"/>
      <point x="475" y="82"/>
      <point x="487" y="78"/>
      <point x="499" y="78" type="curve" smooth="yes"/>
      <point x="508" y="78"/>
      <point x="518" y="81"/>
      <point x="528" y="88" type="curve"/>
      <point x="530" y="81"/>
      <point x="528" y="75"/>
      <point x="528" y="75" type="curve"/>
      <point x="526" y="76"/>
      <point x="524" y="76"/>
      <point x="523" y="76" type="curve" smooth="yes"/>
      <point x="511" y="77"/>
      <point x="505" y="62"/>
      <point x="505" y="62" type="curve"/>
      <point x="511" y="62"/>
      <point x="515" y="59"/>
      <point x="515" y="54" type="curve"/>
      <point x="514" y="49"/>
      <point x="505" y="45"/>
      <point x="497" y="45" type="curve" smooth="yes"/>
      <point x="492" y="45"/>
      <point x="475" y="47"/>
      <point x="459" y="74" type="curve"/>
    </contour>
    <contour>
      <point x="475" y="163"/>
      <point x="492" y="165"/>
      <point x="497" y="165" type="curve" smooth="yes"/>
      <point x="505" y="165"/>
      <point x="514" y="161"/>
      <point x="515" y="156" type="curve"/>
      <point x="515" y="151"/>
      <point x="511" y="148"/>
      <point x="505" y="148" type="curve" smooth="yes"/>
      <point x="505" y="148"/>
      <point x="511" y="134"/>
      <point x="523" y="134" type="curve" smooth="yes"/>
      <point x="524" y="134"/>
      <point x="526" y="134"/>
      <point x="528" y="135" type="curve"/>
      <point x="528" y="135"/>
      <point x="530" y="129"/>
      <point x="528" y="122" type="curve"/>
      <point x="518" y="129"/>
      <point x="508" y="132"/>
      <point x="499" y="132" type="curve" smooth="yes"/>
      <point x="487" y="132"/>
      <point x="475" y="128"/>
      <point x="467" y="120" type="curve"/>
      <point x="465" y="124"/>
      <point x="462" y="130"/>
      <point x="459" y="136" type="curve"/>
    </contour>
    <contour>
      <point x="471" y="105"/>
      <point x="479" y="115"/>
      <point x="498" y="115" type="curve" smooth="yes"/>
      <point x="513" y="115"/>
      <point x="523" y="105"/>
      <point x="523" y="105" type="curve" smooth="yes"/>
      <point x="523" y="105"/>
      <point x="513" y="95"/>
      <point x="498" y="95" type="curve" smooth="yes"/>
      <point x="479" y="95"/>
      <point x="471" y="105"/>
      <point x="471" y="105" type="curve" smooth="yes"/>
    </contour>
    <contour>
      <point x="535" y="105"/>
      <point x="541" y="113"/>
      <point x="553" y="113" type="curve" smooth="yes"/>
      <point x="568" y="113"/>
      <point x="577" y="105"/>
      <point x="577" y="105" type="curve" smooth="yes"/>
      <point x="577" y="105"/>
      <point x="568" y="97"/>
      <point x="553" y="97" type="curve" smooth="yes"/>
      <point x="541" y="97"/>
      <point x="535" y="105"/>
      <point x="535" y="105" type="curve" smooth="yes"/>
    </contour>
    <contour>
      <point x="307" y="188"/>
      <point x="309" y="208"/>
      <point x="320" y="208" type="curve"/>
      <point x="333" y="208"/>
      <point x="333" y="185"/>
      <point x="320" y="153" type="curve"/>
    </contour>
  </outline>
</glyph>
<glyph name="tahabove-ar" format="1">
  <advance width="0"/>
  <unicode hex="0615"/>
  <outline>
    <contour>
      <point x="-72" y="703" type="line"/>
      <point x="-1" y="704" type="line"/>
      <point x="25" y="704"/>
      <point x="42" y="709"/>
      <point x="53" y="717" type="curve"/>
      <point x="63" y="723"/>
      <point x="70" y="730"/>
      <point x="75" y="738" type="curve"/>
      <point x="82" y="748"/>
      <point x="83" y="758"/>
      <point x="85" y="762" type="curve"/>
      <point x="81" y="772"/>
      <point x="77" y="779"/>
      <point x="72" y="785" type="curve" smooth="yes"/>
      <point x="64" y="793"/>
      <point x="53" y="798"/>
      <point x="41" y="798" type="curve" smooth="yes"/>
      <point x="23" y="798"/>
      <point x="8" y="788"/>
      <point x="-7" y="775" type="curve"/>
      <point x="-2" y="790"/>
      <point x="-1" y="807"/>
      <point x="-3" y="824" type="curve" smooth="yes"/>
      <point x="-5" y="840"/>
      <point x="-9" y="856"/>
      <point x="-12" y="869" type="curve"/>
      <point x="-15" y="880"/>
      <point x="-13" y="885"/>
      <point x="-6" y="890" type="curve"/>
      <point x="-15" y="897"/>
      <point x="-22" y="906"/>
      <point x="-27" y="918" type="curve"/>
      <point x="-37" y="918"/>
      <point x="-42" y="908"/>
      <point x="-43" y="903" type="curve"/>
      <point x="-46" y="895"/>
      <point x="-45" y="885"/>
      <point x="-45" y="885" type="curve"/>
      <point x="-40" y="880" type="line"/>
      <point x="-32" y="863"/>
      <point x="-28" y="845"/>
      <point x="-25" y="826" type="curve" smooth="yes"/>
      <point x="-22" y="806"/>
      <point x="-21" y="784"/>
      <point x="-21" y="759" type="curve"/>
      <point x="-27" y="753"/>
      <point x="-32" y="745"/>
      <point x="-36" y="739" type="curve"/>
      <point x="-36" y="739"/>
      <point x="-51" y="738"/>
      <point x="-58" y="738" type="curve" smooth="yes"/>
      <point x="-71" y="738"/>
      <point x="-94" y="740"/>
      <point x="-94" y="740" type="curve"/>
    </contour>
    <contour>
      <point x="-27" y="735"/>
      <point x="-19" y="746"/>
      <point x="-7" y="756" type="curve" smooth="yes"/>
      <point x="4" y="765"/>
      <point x="21" y="773"/>
      <point x="38" y="773" type="curve" smooth="yes"/>
      <point x="48" y="773"/>
      <point x="56" y="771"/>
      <point x="62" y="765" type="curve"/>
      <point x="66" y="763"/>
      <point x="68" y="758"/>
      <point x="72" y="753" type="curve"/>
      <point x="57" y="740"/>
      <point x="38" y="735"/>
      <point x="8" y="735" type="curve" smooth="yes"/>
      <point x="-27" y="735" type="line" smooth="yes"/>
    </contour>
    <contour>
      <point x="-5" y="918" type="move" name="top"/>
    </contour>
    <contour>
      <point x="-5" y="683" type="move" name="_top"/>
    </contour>
  </outline>
</glyph>
<glyph name="kaf-ar" format="1">
  <advance width="829"/>
  <unicode hex="0643"/>
  <outline>
    <contour>
      <point x="767" y="220"/>
      <point x="764" y="276"/>
      <point x="760" y="327" type="curve" smooth="yes"/>
      <point x="752" y="437"/>
      <point x="744" y="497"/>
      <point x="740" y="531" type="curve" smooth="yes"/>
      <point x="733" y="578"/>
      <point x="762" y="593"/>
      <point x="762" y="593" type="curve"/>
      <point x="732" y="615"/>
      <point x="715" y="640"/>
      <point x="699" y="682" type="curve"/>
      <point x="672" y="678"/>
      <point x="658" y="659"/>
      <point x="650" y="637" type="curve" smooth="yes"/>
      <point x="641" y="610"/>
      <point x="642" y="581"/>
      <point x="642" y="581" type="curve"/>
      <point x="658" y="567" type="line"/>
      <point x="676" y="497"/>
      <point x="686" y="413"/>
      <point x="694" y="339" type="curve" smooth="yes"/>
      <point x="700" y="286"/>
      <point x="710" y="167"/>
      <point x="710" y="126" type="curve"/>
      <point x="609" y="99"/>
      <point x="501" y="98"/>
      <point x="383" y="98" type="curve" smooth="yes"/>
      <point x="244" y="98"/>
      <point x="113" y="117"/>
      <point x="113" y="186" type="curve" smooth="yes"/>
      <point x="113" y="199"/>
      <point x="118" y="214"/>
      <point x="129" y="230" type="curve"/>
      <point x="113" y="246" type="line"/>
      <point x="91" y="224"/>
      <point x="68" y="181"/>
      <point x="70" y="137" type="curve" smooth="yes"/>
      <point x="72" y="100"/>
      <point x="92" y="63"/>
      <point x="144" y="35" type="curve" smooth="yes"/>
      <point x="192" y="10"/>
      <point x="267" y="-7"/>
      <point x="383" y="-7" type="curve" smooth="yes"/>
      <point x="497" y="-7"/>
      <point x="619" y="2"/>
      <point x="678" y="14" type="curve" smooth="yes"/>
      <point x="774" y="34"/>
      <point x="770" y="121"/>
      <point x="769" y="173" type="curve" smooth="yes"/>
    </contour>
    <contour>
      <point x="480" y="198"/>
      <point x="491" y="217"/>
      <point x="498" y="249" type="curve" smooth="yes"/>
      <point x="501" y="262"/>
      <point x="496" y="281"/>
      <point x="471" y="281" type="curve" smooth="yes"/>
      <point x="433" y="281"/>
      <point x="427" y="294"/>
      <point x="427" y="294" type="curve"/>
      <point x="428" y="313"/>
      <point x="476" y="315"/>
      <point x="476" y="315" type="curve"/>
      <point x="492" y="369" type="line"/>
      <point x="470" y="364"/>
      <point x="445" y="354"/>
      <point x="425" y="339" type="curve" smooth="yes"/>
      <point x="405" y="324"/>
      <point x="391" y="305"/>
      <point x="391" y="282" type="curve" smooth="yes"/>
      <point x="391" y="267"/>
      <point x="396" y="256"/>
      <point x="403" y="248" type="curve" smooth="yes"/>
      <point x="412" y="240"/>
      <point x="424" y="237"/>
      <point x="439" y="237" type="curve" smooth="yes"/>
      <point x="459" y="237"/>
      <point x="461" y="230"/>
      <point x="461" y="230" type="curve"/>
      <point x="444" y="206"/>
      <point x="358" y="203"/>
      <point x="348" y="204" type="curve"/>
      <point x="340" y="188" type="line"/>
      <point x="347" y="185"/>
      <point x="379" y="177"/>
      <point x="393" y="175" type="curve" smooth="yes"/>
      <point x="422" y="171"/>
      <point x="447" y="171"/>
      <point x="466" y="186" type="curve" smooth="yes"/>
    </contour>
    <contour>
      <point x="439" y="387" type="move" name="top"/>
    </contour>
    <contour>
      <point x="404" y="-45" type="move" name="bottom"/>
    </contour>
  </outline>
</glyph>
<glyph name="fathatan-ar" format="1">
  <advance width="0"/>
  <unicode hex="064B"/>
  <outline>
    <contour>
      <point x="-81" y="690" type="line"/>
      <point x="59" y="745" type="line"/>
      <point x="85" y="794" type="line"/>
      <point x="-60" y="737" type="line"/>
      <point x="-88" y="695" type="line"/>
    </contour>
    <contour>
      <point x="-81" y="765" type="line"/>
      <point x="59" y="820" type="line"/>
      <point x="85" y="869" type="line"/>
      <point x="-60" y="812" type="line"/>
      <point x="-88" y="770" type="line"/>
    </contour>
    <contour>
      <point x="-2" y="869" type="move" name="top"/>
    </contour>
    <contour>
      <point x="-2" y="670" type="move" name="_top"/>
    </contour>
  </outline>
</glyph>
<glyph name="shadda-ar" format="1">
  <advance width="0"/>
  <unicode hex="0651"/>
  <outline>
    <contour>
      <point x="167" y="721" type="move"/>
    </contour>
    <contour>
      <point x="82" y="825"/>
      <point x="78" y="844"/>
      <point x="70" y="852" type="curve"/>
      <point x="48" y="822" type="line"/>
      <point x="52" y="810"/>
      <point x="56" y="796"/>
      <point x="55" y="786" type="curve"/>
      <point x="55" y="786"/>
      <point x="33" y="784"/>
      <point x="22" y="790" type="curve" smooth="yes"/>
      <point x="7" y="799"/>
      <point x="5" y="809"/>
      <point x="4" y="818" type="curve"/>
      <point x="-8" y="813" type="line"/>
      <point x="-8" y="813"/>
      <point x="-6" y="795"/>
      <point x="-13" y="780" type="curve" smooth="yes"/>
      <point x="-18" y="769"/>
      <point x="-27" y="760"/>
      <point x="-45" y="760" type="curve" smooth="yes"/>
      <point x="-66" y="760"/>
      <point x="-69" y="777"/>
      <point x="-65" y="792" type="curve" smooth="yes"/>
      <point x="-63" y="801"/>
      <point x="-62" y="809"/>
      <point x="-65" y="814" type="curve" smooth="yes"/>
      <point x="-69" y="819"/>
      <point x="-76" y="821"/>
      <point x="-90" y="818" type="curve"/>
      <point x="-94" y="799" type="line"/>
      <point x="-94" y="799"/>
      <point x="-91" y="800"/>
      <point x="-87" y="801" type="curve" smooth="yes"/>
      <point x="-81" y="801"/>
      <point x="-74" y="800"/>
      <point x="-79" y="789" type="curve" smooth="yes"/>
      <point x="-84" y="776"/>
      <point x="-88" y="763"/>
      <point x="-88" y="754" type="curve" smooth="yes"/>
      <point x="-87" y="728"/>
      <point x="-69" y="714"/>
      <point x="-52" y="714" type="curve" smooth="yes"/>
      <point x="-33" y="714"/>
      <point x="-20" y="722"/>
      <point x="-12" y="731" type="curve" smooth="yes"/>
      <point x="-4" y="741"/>
      <point x="0" y="754"/>
      <point x="1" y="764" type="curve"/>
      <point x="6" y="753"/>
      <point x="19" y="739"/>
      <point x="48" y="739" type="curve" smooth="yes"/>
      <point x="59" y="739"/>
      <point x="78" y="774"/>
      <point x="80" y="780" type="curve" smooth="yes"/>
      <point x="82" y="788"/>
      <point x="83" y="797"/>
      <point x="83" y="807" type="curve" smooth="yes"/>
    </contour>
    <contour>
      <point x="-3" y="852" type="move" name="top"/>
    </contour>
    <contour>
      <point x="-3" y="695" type="move" name="_top"/>
    </contour>
  </outline>
</glyph>
<glyph name="endofayah-ar" format="1">
  <advance width="1047"/>
  <unicode hex="06DD"/>
  <outline>
    <contour>
      <point x="870" y="629"/>
      <point x="765" y="704"/>
      <point x="634" y="732" type="curve" smooth="yes"/>
      <point x="545" y="753"/>
      <point x="523" y="795"/>
      <point x="523" y="795" type="curve" smooth="yes"/>
      <point x="523" y="795"/>
      <point x="502" y="753"/>
      <point x="413" y="732" type="curve" smooth="yes"/>
      <point x="282" y="704"/>
      <point x="177" y="629"/>
      <point x="108" y="526" type="curve" smooth="yes"/>
      <point x="58" y="454"/>
      <point x="32" y="368"/>
      <point x="30" y="281" type="curve" smooth="yes"/>
      <point x="28" y="189"/>
      <point x="54" y="96"/>
      <point x="108" y="16" type="curve" smooth="yes"/>
      <point x="181" y="-92"/>
      <point x="283" y="-159"/>
      <point x="413" y="-190" type="curve" smooth="yes"/>
      <point x="502" y="-211"/>
      <point x="523" y="-252"/>
      <point x="523" y="-252" type="curve" smooth="yes"/>
      <point x="523" y="-252"/>
      <point x="545" y="-211"/>
      <point x="634" y="-190" type="curve" smooth="yes"/>
      <point x="763" y="-159"/>
      <point x="865" y="-92"/>
      <point x="939" y="16" type="curve" smooth="yes"/>
      <point x="992" y="94"/>
      <point x="1017" y="184"/>
      <point x="1017" y="274" type="curve" smooth="yes"/>
      <point x="1017" y="363"/>
      <point x="990" y="452"/>
      <point x="939" y="526" type="curve" smooth="yes"/>
    </contour>
    <contour>
      <point x="79" y="294"/>
      <point x="85" y="293"/>
      <point x="87" y="295" type="curve"/>
      <point x="87" y="296"/>
      <point x="86" y="298"/>
      <point x="85" y="299" type="curve"/>
      <point x="98" y="309"/>
      <point x="108" y="320"/>
      <point x="111" y="329" type="curve"/>
      <point x="115" y="320"/>
      <point x="125" y="309"/>
      <point x="137" y="299" type="curve"/>
      <point x="137" y="298"/>
      <point x="136" y="296"/>
      <point x="136" y="295" type="curve"/>
      <point x="137" y="293"/>
      <point x="144" y="294"/>
      <point x="148" y="291" type="curve"/>
      <point x="159" y="272" type="line"/>
      <point x="148" y="251" type="line"/>
      <point x="144" y="248"/>
      <point x="137" y="249"/>
      <point x="136" y="248" type="curve"/>
      <point x="136" y="245"/>
      <point x="137" y="245"/>
      <point x="137" y="243" type="curve"/>
      <point x="125" y="233"/>
      <point x="115" y="223"/>
      <point x="111" y="214" type="curve"/>
      <point x="108" y="223"/>
      <point x="98" y="233"/>
      <point x="85" y="243" type="curve"/>
      <point x="86" y="245"/>
      <point x="87" y="245"/>
      <point x="87" y="248" type="curve"/>
      <point x="85" y="249"/>
      <point x="79" y="248"/>
      <point x="75" y="251" type="curve"/>
      <point x="64" y="272" type="line"/>
      <point x="75" y="291" type="line"/>
    </contour>
    <contour>
      <point x="666" y="-94"/>
      <point x="656" y="-145"/>
      <point x="625" y="-145" type="curve" smooth="yes"/>
      <point x="606" y="-145"/>
      <point x="580" y="-127"/>
      <point x="523" y="-80" type="curve"/>
      <point x="465" y="-128"/>
      <point x="440" y="-146"/>
      <point x="421" y="-145" type="curve" smooth="yes"/>
      <point x="391" y="-144"/>
      <point x="380" y="-94"/>
      <point x="279" y="-46" type="curve" smooth="yes"/>
      <point x="157" y="12"/>
      <point x="119" y="108"/>
      <point x="114" y="119" type="curve"/>
      <point x="164" y="128"/>
      <point x="120" y="145"/>
      <point x="152" y="202" type="curve" smooth="yes"/>
      <point x="163" y="221"/>
      <point x="182" y="244"/>
      <point x="215" y="272" type="curve"/>
      <point x="189" y="294"/>
      <point x="171" y="313"/>
      <point x="159" y="329" type="curve" smooth="yes"/>
      <point x="110" y="397"/>
      <point x="167" y="415"/>
      <point x="114" y="424" type="curve"/>
      <point x="119" y="435"/>
      <point x="157" y="530"/>
      <point x="279" y="588" type="curve" smooth="yes"/>
      <point x="397" y="646"/>
      <point x="429" y="669"/>
      <point x="446" y="670" type="curve" smooth="yes"/>
      <point x="463" y="671"/>
      <point x="464" y="650"/>
      <point x="523" y="623" type="curve"/>
      <point x="581" y="649"/>
      <point x="583" y="670"/>
      <point x="599" y="670" type="curve" smooth="yes"/>
      <point x="615" y="670"/>
      <point x="646" y="648"/>
      <point x="768" y="588" type="curve" smooth="yes"/>
      <point x="889" y="530"/>
      <point x="928" y="435"/>
      <point x="933" y="424" type="curve"/>
      <point x="888" y="416"/>
      <point x="923" y="402"/>
      <point x="903" y="355" type="curve" smooth="yes"/>
      <point x="894" y="334"/>
      <point x="874" y="307"/>
      <point x="832" y="272" type="curve"/>
      <point x="869" y="241"/>
      <point x="888" y="216"/>
      <point x="898" y="196" type="curve" smooth="yes"/>
      <point x="924" y="144"/>
      <point x="885" y="128"/>
      <point x="933" y="119" type="curve"/>
      <point x="928" y="108"/>
      <point x="889" y="12"/>
      <point x="768" y="-46" type="curve" smooth="yes"/>
    </contour>
    <contour>
      <point x="909" y="245"/>
      <point x="910" y="247"/>
      <point x="910" y="248" type="curve"/>
      <point x="909" y="250"/>
      <point x="903" y="249"/>
      <point x="898" y="252" type="curve"/>
      <point x="887" y="272" type="line"/>
      <point x="898" y="292" type="line"/>
      <point x="903" y="295"/>
      <point x="909" y="294"/>
      <point x="910" y="295" type="curve"/>
      <point x="910" y="298"/>
      <point x="909" y="299"/>
      <point x="909" y="300" type="curve"/>
      <point x="922" y="310"/>
      <point x="931" y="320"/>
      <point x="935" y="329" type="curve"/>
      <point x="939" y="320"/>
      <point x="948" y="310"/>
      <point x="961" y="300" type="curve"/>
      <point x="961" y="299"/>
      <point x="960" y="298"/>
      <point x="960" y="295" type="curve"/>
      <point x="961" y="294"/>
      <point x="968" y="295"/>
      <point x="972" y="292" type="curve"/>
      <point x="983" y="272" type="line"/>
      <point x="972" y="252" type="line"/>
      <point x="968" y="249"/>
      <point x="961" y="250"/>
      <point x="960" y="248" type="curve"/>
      <point x="960" y="247"/>
      <point x="961" y="245"/>
      <point x="961" y="245" type="curve"/>
      <point x="949" y="234"/>
      <point x="939" y="223"/>
      <point x="935" y="214" type="curve"/>
      <point x="931" y="223"/>
      <point x="921" y="234"/>
      <point x="909" y="245" type="curve"/>
    </contour>
  </outline>
</glyph>
<glyph name="five-persian" format="1">
  <advance width="448"/>
  <unicode hex="06F5"/>
  <outline>
    <contour>
      <point x="377" y="287"/>
      <point x="361" y="336"/>
      <point x="338" y="378" type="curve" smooth="yes"/>
      <point x="294" y="459"/>
      <point x="219" y="515"/>
      <point x="160" y="566" type="curve"/>
      <point x="160" y="461" type="line"/>
      <point x="166" y="455"/>
      <point x="179" y="441"/>
      <point x="184" y="435" type="curve"/>
      <point x="146" y="407"/>
      <point x="60" y="309"/>
      <point x="60" y="180" type="curve" smooth="yes"/>
      <point x="60" y="147" type="line" smooth="yes"/>
      <point x="60" y="90"/>
      <point x="76" y="19"/>
      <point x="148" y="19" type="curve" smooth="yes"/>
      <point x="192" y="19"/>
      <point x="208" y="37"/>
      <point x="219" y="57" type="curve"/>
      <point x="226" y="43"/>
      <point x="244" y="20"/>
      <point x="287" y="20" type="curve" smooth="yes"/>
      <point x="351" y="20"/>
      <point x="378" y="99"/>
      <point x="378" y="141" type="curve"/>
      <point x="377" y="241" type="line"/>
    </contour>
    <contour>
      <point x="246" y="125"/>
      <point x="235" y="146"/>
      <point x="235" y="189" type="curve"/>
      <point x="212" y="198" type="line"/>
      <point x="212" y="198"/>
      <point x="210" y="121"/>
      <point x="150" y="121" type="curve" smooth="yes"/>
      <point x="107" y="121"/>
      <point x="91" y="149"/>
      <point x="91" y="184" type="curve"/>
      <point x="109" y="260"/>
      <point x="166" y="333"/>
      <point x="223" y="364" type="curve"/>
      <point x="223" y="396" type="line"/>
      <point x="255" y="362"/>
      <point x="327" y="278"/>
      <point x="351" y="188" type="curve"/>
      <point x="348" y="154"/>
      <point x="323" y="125"/>
      <point x="291" y="125" type="curve" smooth="yes"/>
    </contour>
  </outline>
</glyph>
<glyph name="whiteDiamond" format="1">
  <advance width="417"/>
  <unicode hex="25C7"/>
  <outline>
    <contour>
      <point x="387" y="53" type="line"/>
      <point x="208" y="231" type="line"/>
      <point x="30" y="53" type="line"/>
      <point x="209" y="-126" type="line"/>
    </contour>
    <contour>
      <point x="209" y="152" type="line"/>
      <point x="309" y="53" type="line"/>
      <point x="209" y="-47" type="line"/>
      <point x="110" y="53" type="line"/>
    </contour>
  </outline>
</glyph>
<glyph name="hehgoal-ar.fina" format="1">
  <advance width="411"/>
  <unicode hex="FBA7"/>
  <outline>
    <contour>
      <point x="334" y="106"/>
      <point x="295" y="115"/>
      <point x="271" y="149" type="curve" smooth="yes"/>
      <point x="253" y="175"/>
      <point x="254" y="210"/>
      <point x="235" y="236" type="curve" smooth="yes"/>
      <point x="221" y="256"/>
      <point x="203" y="264"/>
      <point x="185" y="264" type="curve" smooth="yes"/>
      <point x="159" y="264"/>
      <point x="127" y="247"/>
      <point x="103" y="217" type="curve" smooth="yes"/>
      <point x="83" y="193"/>
      <point x="70" y="162"/>
      <point x="70" y="125" type="curve"/>
      <point x="70" y="50" type="line"/>
      <point x="71" y="37"/>
      <point x="73" y="24"/>
      <point x="78" y="13" type="curve" smooth="yes"/>
      <point x="87" y="-9"/>
      <point x="102" y="-27"/>
      <point x="118" y="-41" type="curve" smooth="yes"/>
      <point x="134" y="-55"/>
      <point x="171" y="-80"/>
      <point x="178" y="-85" type="curve" smooth="yes"/>
      <point x="207" y="-106"/>
      <point x="243" y="-128"/>
      <point x="256" y="-163" type="curve"/>
      <point x="261" y="-163" type="line"/>
      <point x="261" y="-163"/>
      <point x="261" y="-107"/>
      <point x="261" y="-83" type="curve" smooth="yes"/>
      <point x="261" y="-40"/>
      <point x="234" y="-13"/>
      <point x="203" y="11" type="curve" smooth="yes"/>
      <point x="177" y="30"/>
      <point x="147" y="47"/>
      <point x="126" y="69" type="curve" smooth="yes"/>
      <point x="117" y="79"/>
      <point x="110" y="88"/>
      <point x="103" y="98" type="curve"/>
      <point x="107" y="105"/>
      <point x="111" y="112"/>
      <point x="117" y="119" type="curve" smooth="yes"/>
      <point x="136" y="142"/>
      <point x="161" y="156"/>
      <point x="185" y="156" type="curve" smooth="yes"/>
      <point x="209" y="157"/>
      <point x="231" y="144"/>
      <point x="245" y="113" type="curve" smooth="yes"/>
      <point x="256" y="87"/>
      <point x="258" y="58"/>
      <point x="278" y="36" type="curve" smooth="yes"/>
      <point x="303" y="8"/>
      <point x="338" y="0"/>
      <point x="373" y="0" type="curve" smooth="yes"/>
      <point x="411" y="0" type="line"/>
      <point x="411" y="106" type="line"/>
      <point x="373" y="106" type="line" smooth="yes"/>
    </contour>
    <contour>
      <point x="155" y="294" type="move" name="top"/>
    </contour>
    <contour>
      <point x="171" y="-194" type="move" name="bottom"/>
    </contour>
  </outline>
</glyph>
<glyph name="hah-ar.fina" format="1">
  <advance width="608"/>
  <unicode hex="FEA2"/>
  <outline>
    <contour>
      <point x="482" y="106"/>
      <point x="445" y="123"/>
      <point x="449" y="184" type="curve"/>
      <point x="459" y="184"/>
      <point x="465" y="184"/>
      <point x="465" y="184" type="curve"/>
      <point x="503" y="284" type="line"/>
      <point x="466" y="285" type="line" smooth="yes"/>
      <point x="413" y="286"/>
      <point x="379" y="294"/>
      <point x="299" y="314" type="curve" smooth="yes"/>
      <point x="255" y="325"/>
      <point x="213" y="335"/>
      <point x="184" y="335" type="curve" smooth="yes"/>
      <point x="141" y="335"/>
      <point x="115" y="312"/>
      <point x="101" y="294" type="curve" smooth="yes"/>
      <point x="83" y="271"/>
      <point x="78" y="247"/>
      <point x="78" y="223" type="curve" smooth="yes"/>
      <point x="78" y="176" type="line"/>
      <point x="78" y="176"/>
      <point x="128" y="138"/>
      <point x="152" y="114" type="curve"/>
      <point x="108" y="68"/>
      <point x="70" y="-4"/>
      <point x="70" y="-99" type="curve" smooth="yes"/>
      <point x="70" y="-192"/>
      <point x="106" y="-265"/>
      <point x="148" y="-305" type="curve" smooth="yes"/>
      <point x="198" y="-353"/>
      <point x="269" y="-370"/>
      <point x="349" y="-370" type="curve" smooth="yes"/>
      <point x="407" y="-370" type="line"/>
      <point x="494" y="-269" type="line"/>
      <point x="399" y="-269" type="line" smooth="yes"/>
      <point x="358" y="-269"/>
      <point x="283" y="-264"/>
      <point x="217" y="-223" type="curve" smooth="yes"/>
      <point x="159" y="-187"/>
      <point x="123" y="-131"/>
      <point x="123" y="-67" type="curve" smooth="yes"/>
      <point x="123" y="-8"/>
      <point x="153" y="47"/>
      <point x="184" y="78" type="curve"/>
      <point x="192" y="70"/>
      <point x="198" y="52"/>
      <point x="198" y="52" type="curve" smooth="yes"/>
      <point x="198" y="52"/>
      <point x="207" y="68"/>
      <point x="202" y="96" type="curve"/>
      <point x="246" y="130"/>
      <point x="293" y="151"/>
      <point x="335" y="164" type="curve" smooth="yes"/>
      <point x="364" y="173"/>
      <point x="390" y="178"/>
      <point x="411" y="180" type="curve"/>
      <point x="408" y="169"/>
      <point x="406" y="151"/>
      <point x="406" y="137" type="curve" smooth="yes"/>
      <point x="406" y="106"/>
      <point x="415" y="67"/>
      <point x="440" y="40" type="curve" smooth="yes"/>
      <point x="463" y="16"/>
      <point x="498" y="0"/>
      <point x="552" y="0" type="curve" smooth="yes"/>
      <point x="608" y="0" type="line"/>
      <point x="608" y="106" type="line"/>
      <point x="556" y="106" type="line" smooth="yes"/>
    </contour>
    <contour>
      <point x="165" y="175"/>
      <point x="133" y="203"/>
      <point x="116" y="216" type="curve"/>
      <point x="122" y="229"/>
      <point x="143" y="245"/>
      <point x="180" y="245" type="curve" smooth="yes"/>
      <point x="214" y="245"/>
      <point x="256" y="231"/>
      <point x="314" y="223" type="curve"/>
      <point x="299" y="217"/>
      <point x="237" y="194"/>
      <point x="184" y="143" type="curve"/>
    </contour>
    <contour>
      <point x="313" y="-55" type="move" name="center"/>
    </contour>
    <contour>
      <point x="306" y="-401" type="move" name="bottom"/>
    </contour>
    <contour>
      <point x="265" y="359" type="move" name="top"/>
    </contour>
  </outline>
</glyph>
<glyph name="ain-ar.medi" format="1">
  <advance width="451"/>
  <unicode hex="FECC"/>
  <outline>
    <contour>
      <point x="311" y="106"/>
      <point x="301" y="106"/>
      <point x="288" y="111" type="curve"/>
      <point x="309" y="130"/>
      <point x="315" y="136"/>
      <point x="334" y="152" type="curve"/>
      <point x="348" y="239" type="line"/>
      <point x="318" y="263"/>
      <point x="264" y="285"/>
      <point x="200" y="285" type="curve" smooth="yes"/>
      <point x="149" y="285"/>
      <point x="102" y="270"/>
      <point x="63" y="239" type="curve"/>
      <point x="50" y="168" type="line"/>
      <point x="72" y="176"/>
      <point x="96" y="176"/>
      <point x="118" y="163" type="curve" smooth="yes"/>
      <point x="131" y="155"/>
      <point x="144" y="142"/>
      <point x="156" y="125" type="curve"/>
      <point x="128" y="116"/>
      <point x="82" y="106"/>
      <point x="44" y="106" type="curve" smooth="yes"/>
      <point x="-17" y="106" type="line" smooth="yes"/>
      <point x="-46" y="106"/>
      <point x="-70" y="81"/>
      <point x="-70" y="52" type="curve" smooth="yes"/>
      <point x="-70" y="24"/>
      <point x="-46" y="0"/>
      <point x="-17" y="0" type="curve" smooth="yes"/>
      <point x="30" y="0" type="line" smooth="yes"/>
      <point x="91" y="0"/>
      <point x="162" y="22"/>
      <point x="202" y="53" type="curve"/>
      <point x="213" y="36"/>
      <point x="229" y="0"/>
      <point x="328" y="0" type="curve" smooth="yes"/>
      <point x="451" y="0" type="line"/>
      <point x="451" y="106" type="line"/>
      <point x="344" y="106" type="line" smooth="yes"/>
    </contour>
    <contour>
      <point x="209" y="184"/>
      <point x="187" y="201"/>
      <point x="173" y="211" type="curve"/>
      <point x="207" y="215"/>
      <point x="242" y="211"/>
      <point x="280" y="197" type="curve"/>
      <point x="263" y="181"/>
      <point x="244" y="168"/>
      <point x="224" y="156" type="curve"/>
    </contour>
    <contour>
      <point x="196" y="312" type="move" name="top"/>
    </contour>
    <contour>
      <point x="182" y="-34" type="move" name="bottom"/>
    </contour>
  </outline>
</glyph>
<glyph name="lam-ar.init" format="1">
  <advance width="201"/>
  <unicode hex="FEDF"/>
  <outline>
    <contour>
      <point x="126" y="409"/>
      <point x="112" y="523"/>
      <point x="111" y="531" type="curve" smooth="yes"/>
      <point x="107" y="562"/>
      <point x="113" y="572"/>
      <point x="133" y="592" type="curve"/>
      <point x="100" y="618"/>
      <point x="89" y="639"/>
      <point x="70" y="682" type="curve"/>
      <point x="42" y="678"/>
      <point x="28" y="657"/>
      <point x="21" y="635" type="curve" smooth="yes"/>
      <point x="13" y="610"/>
      <point x="14" y="581"/>
      <point x="14" y="581" type="curve"/>
      <point x="29" y="567" type="line"/>
      <point x="48" y="491"/>
      <point x="56" y="420"/>
      <point x="65" y="339" type="curve" smooth="yes"/>
      <point x="73" y="267"/>
      <point x="82" y="170"/>
      <point x="82" y="129" type="curve"/>
      <point x="82" y="129"/>
      <point x="61" y="106"/>
      <point x="23" y="106" type="curve" smooth="yes"/>
      <point x="-17" y="106" type="line" smooth="yes"/>
      <point x="-46" y="106"/>
      <point x="-70" y="82"/>
      <point x="-70" y="53" type="curve" smooth="yes"/>
      <point x="-70" y="24"/>
      <point x="-46" y="0"/>
      <point x="-17" y="0" type="curve" smooth="yes"/>
      <point x="39" y="0" type="line" smooth="yes"/>
      <point x="92" y="0"/>
      <point x="125" y="29"/>
      <point x="136" y="66" type="curve" smooth="yes"/>
      <point x="141" y="83"/>
      <point x="142" y="109"/>
      <point x="140" y="172" type="curve" smooth="yes"/>
      <point x="138" y="237"/>
      <point x="133" y="313"/>
      <point x="132" y="327" type="curve" smooth="yes"/>
    </contour>
    <contour>
      <point x="40" y="702" type="move" name="top"/>
    </contour>
    <contour>
      <point x="51" y="-34" type="move" name="bottom"/>
    </contour>
  </outline>
</glyph>
<glyph name="heh-ar.medi" format="1">
  <advance width="450"/>
  <unicode hex="FEEC"/>
  <outline>
    <contour>
      <point x="299" y="106" type="line"/>
      <point x="283" y="106"/>
      <point x="258" y="101"/>
      <point x="234" y="90" type="curve"/>
      <point x="239" y="94"/>
      <point x="261" y="108"/>
      <point x="279" y="129" type="curve" smooth="yes"/>
      <point x="295" y="147"/>
      <point x="306" y="169"/>
      <point x="300" y="192" type="curve"/>
      <point x="282" y="255"/>
      <point x="256" y="346"/>
      <point x="246" y="380" type="curve"/>
      <point x="186" y="341" type="line"/>
      <point x="193" y="321" type="line"/>
      <point x="198" y="305"/>
      <point x="192" y="283"/>
      <point x="171" y="250" type="curve" smooth="yes"/>
      <point x="157" y="228"/>
      <point x="138" y="204"/>
      <point x="122" y="186" type="curve" smooth="yes"/>
      <point x="90" y="150"/>
      <point x="54" y="118"/>
      <point x="36" y="106" type="curve"/>
      <point x="-16" y="106" type="line" smooth="yes"/>
      <point x="-45" y="106"/>
      <point x="-69" y="81"/>
      <point x="-69" y="52" type="curve" smooth="yes"/>
      <point x="-69" y="24"/>
      <point x="-45" y="0"/>
      <point x="-16" y="0" type="curve" smooth="yes"/>
      <point x="41" y="0" type="line"/>
      <point x="41" y="-34" type="line"/>
      <point x="53" y="-29"/>
      <point x="65" y="-24"/>
      <point x="78" y="-19" type="curve"/>
      <point x="78" y="-54"/>
      <point x="88" y="-85"/>
      <point x="106" y="-111" type="curve" smooth="yes"/>
      <point x="134" y="-152"/>
      <point x="186" y="-187"/>
      <point x="224" y="-196" type="curve" smooth="yes"/>
      <point x="237" y="-199"/>
      <point x="249" y="-200"/>
      <point x="254" y="-200" type="curve" smooth="yes"/>
      <point x="285" y="-200"/>
      <point x="314" y="-159"/>
      <point x="325" y="-137" type="curve" smooth="yes"/>
      <point x="340" y="-108"/>
      <point x="344" y="-78"/>
      <point x="344" y="-69" type="curve" smooth="yes"/>
      <point x="344" y="-50"/>
      <point x="323" y="-27"/>
      <point x="290" y="0" type="curve"/>
      <point x="450" y="0" type="line"/>
      <point x="450" y="106" type="line"/>
    </contour>
    <contour>
      <point x="243" y="167" type="line"/>
      <point x="221" y="145"/>
      <point x="180" y="125"/>
      <point x="99" y="106" type="curve"/>
      <point x="140" y="138"/>
      <point x="198" y="210"/>
      <point x="218" y="245" type="curve"/>
    </contour>
    <contour>
      <point x="290" y="-83"/>
      <point x="279" y="-99"/>
      <point x="249" y="-99" type="curve" smooth="yes"/>
      <point x="230" y="-99"/>
      <point x="209" y="-93"/>
      <point x="191" y="-85" type="curve" smooth="yes"/>
      <point x="158" y="-70"/>
      <point x="130" y="-44"/>
      <point x="107" y="-8" type="curve"/>
      <point x="125" y="-3"/>
      <point x="143" y="0"/>
      <point x="165" y="0" type="curve" smooth="yes"/>
      <point x="186" y="0"/>
      <point x="200" y="-3"/>
      <point x="217" y="-9" type="curve" smooth="yes"/>
      <point x="237" y="-16"/>
      <point x="259" y="-28"/>
      <point x="276" y="-45" type="curve" smooth="yes"/>
      <point x="285" y="-54"/>
      <point x="291" y="-64"/>
      <point x="298" y="-75" type="curve"/>
    </contour>
    <contour>
      <point x="206" y="410" type="move" name="top"/>
    </contour>
    <contour>
      <point x="219" y="-224" type="move" name="bottom"/>
    </contour>
  </outline>
</glyph>
<glyph name="ain_meem_alefMaksura-ar" format="1">
  <advance width="1015"/>
  <outline>
    <contour>
      <point x="70" y="-81"/>
      <point x="78" y="-142"/>
      <point x="119" y="-189" type="curve" smooth="yes"/>
      <point x="148" y="-223"/>
      <point x="201" y="-249"/>
      <point x="271" y="-249" type="curve" smooth="yes"/>
      <point x="320" y="-249"/>
      <point x="377" y="-239"/>
      <point x="427" y="-220" type="curve" smooth="yes"/>
      <point x="483" y="-198"/>
      <point x="534" y="-165"/>
      <point x="545" y="-119" type="curve" smooth="yes"/>
      <point x="551" y="-93"/>
      <point x="554" y="-79"/>
      <point x="558" y="-58" type="curve" smooth="yes"/>
      <point x="565" y="-23"/>
      <point x="522" y="10"/>
      <point x="476" y="26" type="curve"/>
      <point x="510" y="33"/>
      <point x="555" y="64"/>
      <point x="567" y="97" type="curve"/>
      <point x="567" y="51"/>
      <point x="602" y="11"/>
      <point x="653" y="11" type="curve" smooth="yes"/>
      <point x="689" y="11"/>
      <point x="716" y="34"/>
      <point x="716" y="34" type="curve"/>
      <point x="725" y="64"/>
      <point x="732" y="86"/>
      <point x="741" y="131" type="curve" smooth="yes"/>
      <point x="749" y="169"/>
      <point x="741" y="202"/>
      <point x="708" y="226" type="curve"/>
      <point x="771" y="263"/>
      <point x="861" y="292"/>
      <point x="921" y="303" type="curve"/>
      <point x="955" y="401" type="line"/>
      <point x="867" y="379"/>
      <point x="849" y="373"/>
      <point x="782" y="351" type="curve"/>
      <point x="763" y="357"/>
      <point x="743" y="370"/>
      <point x="733" y="376" type="curve" smooth="yes"/>
      <point x="715" y="386"/>
      <point x="691" y="406"/>
      <point x="672" y="426" type="curve"/>
      <point x="675" y="431"/>
      <point x="686" y="445"/>
      <point x="702" y="457" type="curve"/>
      <point x="719" y="471"/>
      <point x="744" y="484"/>
      <point x="773" y="484" type="curve" smooth="yes"/>
      <point x="809" y="484"/>
      <point x="835" y="476"/>
      <point x="868" y="460" type="curve"/>
      <point x="891" y="502" type="line"/>
      <point x="879" y="522"/>
      <point x="864" y="539"/>
      <point x="846" y="552" type="curve"/>
      <point x="824" y="566"/>
      <point x="798" y="575"/>
      <point x="767" y="575" type="curve" smooth="yes"/>
      <point x="738" y="575"/>
      <point x="713" y="565"/>
      <point x="693" y="551" type="curve" smooth="yes"/>
      <point x="668" y="534"/>
      <point x="650" y="510"/>
      <point x="641" y="489" type="curve" smooth="yes"/>
      <point x="630" y="463"/>
      <point x="625" y="440"/>
      <point x="623" y="404" type="curve"/>
      <point x="628" y="373"/>
      <point x="648" y="329"/>
      <point x="691" y="299" type="curve"/>
      <point x="625" y="276"/>
      <point x="581" y="230"/>
      <point x="560" y="186" type="curve"/>
      <point x="521" y="113"/>
      <point x="456" y="82"/>
      <point x="364" y="75" type="curve"/>
      <point x="338" y="-9" type="line"/>
      <point x="349" y="-30" type="line"/>
      <point x="412" y="-33"/>
      <point x="494" y="-40"/>
      <point x="491" y="-81" type="curve"/>
      <point x="468" y="-104"/>
      <point x="424" y="-120"/>
      <point x="374" y="-128" type="curve" smooth="yes"/>
      <point x="346" y="-133"/>
      <point x="316" y="-135"/>
      <point x="287" y="-135" type="curve" smooth="yes"/>
      <point x="229" y="-135"/>
      <point x="190" y="-121"/>
      <point x="163" y="-102" type="curve" smooth="yes"/>
      <point x="121" y="-72"/>
      <point x="109" y="-33"/>
      <point x="109" y="4" type="curve"/>
      <point x="111" y="52"/>
      <point x="134" y="94"/>
      <point x="143" y="104" type="curve"/>
      <point x="127" y="120" type="line"/>
      <point x="107" y="96"/>
      <point x="95" y="72"/>
      <point x="87" y="46" type="curve" smooth="yes"/>
      <point x="70" y="-4"/>
      <point x="70" y="-50"/>
      <point x="70" y="-63" type="curve" smooth="yes"/>
    </contour>
    <contour>
      <point x="599" y="167"/>
      <point x="624" y="182"/>
      <point x="648" y="182" type="curve" smooth="yes"/>
      <point x="678" y="182"/>
      <point x="707" y="140"/>
      <point x="707" y="140" type="curve"/>
      <point x="697" y="120"/>
      <point x="688" y="100"/>
      <point x="688" y="100" type="curve" smooth="yes"/>
      <point x="655" y="101"/>
      <point x="613" y="118"/>
      <point x="587" y="143" type="curve"/>
    </contour>
    <contour>
      <point x="659" y="114" type="move"/>
    </contour>
    <contour>
      <point x="821" y="0" type="move" name="bottom_1"/>
    </contour>
    <contour>
      <point x="493" y="257" type="move" name="top_2"/>
    </contour>
    <contour>
      <point x="680" y="0" type="move" name="caret_2"/>
    </contour>
    <contour>
      <point x="345" y="0" type="move" name="caret_1"/>
    </contour>
    <contour>
      <point x="281" y="-279" type="move" name="bottom_3"/>
    </contour>
    <contour>
      <point x="767" y="605" type="move" name="top_1"/>
    </contour>
    <contour>
      <point x="602" y="-200" type="move" name="bottom_2"/>
    </contour>
    <contour>
      <point x="277" y="83" type="move" name="top_3"/>
    </contour>
  </outline>
</glyph>
<glyph name="dotlessbeh_alefMaksura-ar" format="1">
  <advance width="630"/>
  <outline>
    <contour>
      <point x="70" y="-51"/>
      <point x="78" y="-112"/>
      <point x="119" y="-159" type="curve" smooth="yes"/>
      <point x="148" y="-193"/>
      <point x="201" y="-219"/>
      <point x="271" y="-219" type="curve" smooth="yes"/>
      <point x="320" y="-219"/>
      <point x="377" y="-209"/>
      <point x="427" y="-190" type="curve" smooth="yes"/>
      <point x="483" y="-168"/>
      <point x="531" y="-134"/>
      <point x="545" y="-89" type="curve" smooth="yes"/>
      <point x="553" y="-63"/>
      <point x="555" y="-46"/>
      <point x="559" y="-25" type="curve" smooth="yes"/>
      <point x="567" y="13"/>
      <point x="515" y="49"/>
      <point x="465" y="63" type="curve"/>
      <point x="465" y="63"/>
      <point x="517" y="95"/>
      <point x="517" y="179" type="curve"/>
      <point x="517" y="250"/>
      <point x="475" y="311"/>
      <point x="412" y="352" type="curve"/>
      <point x="385" y="252" type="line"/>
      <point x="426" y="232"/>
      <point x="461" y="199"/>
      <point x="470" y="154" type="curve"/>
      <point x="444" y="117"/>
      <point x="412" y="110"/>
      <point x="364" y="105" type="curve"/>
      <point x="338" y="21" type="line"/>
      <point x="349" y="0" type="line"/>
      <point x="412" y="-3"/>
      <point x="495" y="-10"/>
      <point x="492" y="-51" type="curve"/>
      <point x="468" y="-74"/>
      <point x="424" y="-90"/>
      <point x="374" y="-98" type="curve" smooth="yes"/>
      <point x="346" y="-103"/>
      <point x="316" y="-105"/>
      <point x="287" y="-105" type="curve" smooth="yes"/>
      <point x="229" y="-105"/>
      <point x="190" y="-91"/>
      <point x="163" y="-72" type="curve" smooth="yes"/>
      <point x="121" y="-42"/>
      <point x="109" y="-3"/>
      <point x="109" y="34" type="curve"/>
      <point x="111" y="82"/>
      <point x="134" y="124"/>
      <point x="143" y="134" type="curve"/>
      <point x="127" y="150" type="line"/>
      <point x="107" y="126"/>
      <point x="95" y="102"/>
      <point x="87" y="76" type="curve" smooth="yes"/>
      <point x="70" y="26"/>
      <point x="70" y="-20"/>
      <point x="70" y="-33" type="curve" smooth="yes"/>
    </contour>
    <contour>
      <point x="310" y="0" type="move" name="caret_1"/>
    </contour>
    <contour>
      <point x="498" y="-200" type="move" name="bottom_1"/>
    </contour>
    <contour>
      <point x="346" y="371" type="move" name="top_1"/>
    </contour>
    <contour>
      <point x="263" y="88" type="move" name="top_2"/>
    </contour>
    <contour>
      <point x="281" y="-249" type="move" name="bottom_2"/>
    </contour>
  </outline>
</glyph>
<glyph name="dotlessbeh_meem-ar" format="1">
  <advance width="551"/>
  <outline>
    <contour>
      <point x="66" y="-205"/>
      <point x="76" y="-257"/>
      <point x="88" y="-313" type="curve" smooth="yes"/>
      <point x="103" y="-380"/>
      <point x="121" y="-463"/>
      <point x="116" y="-541" type="curve"/>
      <point x="133" y="-533" type="line"/>
      <point x="160" y="-479"/>
      <point x="163" y="-435"/>
      <point x="166" y="-407" type="curve" smooth="yes"/>
      <point x="170" y="-364"/>
      <point x="164" y="-319"/>
      <point x="156" y="-277" type="curve" smooth="yes"/>
      <point x="143" y="-213"/>
      <point x="125" y="-155"/>
      <point x="130" y="-114" type="curve"/>
      <point x="147" y="-83"/>
      <point x="190" y="-63"/>
      <point x="237" y="-63" type="curve" smooth="yes"/>
      <point x="278" y="-63"/>
      <point x="321" y="-79"/>
      <point x="350" y="-101" type="curve"/>
      <point x="368" y="17" type="line"/>
      <point x="354" y="52"/>
      <point x="314" y="66"/>
      <point x="271" y="85" type="curve"/>
      <point x="288" y="98"/>
      <point x="312" y="108"/>
      <point x="336" y="115" type="curve" smooth="yes"/>
      <point x="364" y="123"/>
      <point x="394" y="128"/>
      <point x="416" y="128" type="curve" smooth="yes"/>
      <point x="461" y="128"/>
      <point x="465" y="117"/>
      <point x="465" y="86" type="curve"/>
      <point x="491" y="99" type="line"/>
      <point x="491" y="163" type="line"/>
      <point x="491" y="198"/>
      <point x="478" y="228"/>
      <point x="426" y="228" type="curve" smooth="yes"/>
      <point x="365" y="228"/>
      <point x="304" y="204"/>
      <point x="261" y="162" type="curve" smooth="yes"/>
      <point x="227" y="128"/>
      <point x="205" y="82"/>
      <point x="205" y="28" type="curve"/>
      <point x="166" y="17"/>
      <point x="138" y="-11"/>
      <point x="118" y="-42" type="curve" smooth="yes"/>
      <point x="83" y="-96"/>
      <point x="74" y="-151"/>
      <point x="73" y="-158" type="curve"/>
    </contour>
    <contour>
      <point x="276" y="0" type="move" name="caret_1"/>
    </contour>
    <contour>
      <point x="379" y="-151" type="move" name="bottom_1"/>
    </contour>
    <contour>
      <point x="385" y="258" type="move" name="top_1"/>
    </contour>
    <contour>
      <point x="113" y="106" type="move" name="top_2"/>
    </contour>
    <contour>
      <point x="123" y="-571" type="move" name="bottom_2"/>
    </contour>
  </outline>
</glyph>
<glyph name="dotlessbeh_noonghunna-ar" format="1">
  <advance width="730"/>
  <outline>
    <contour>
      <point x="66" y="-84"/>
      <point x="76" y="-144"/>
      <point x="122" y="-187" type="curve" smooth="yes"/>
      <point x="153" y="-216"/>
      <point x="201" y="-238"/>
      <point x="272" y="-238" type="curve" smooth="yes"/>
      <point x="336" y="-238"/>
      <point x="391" y="-220"/>
      <point x="431" y="-186" type="curve" smooth="yes"/>
      <point x="471" y="-152"/>
      <point x="499" y="-98"/>
      <point x="499" y="-35" type="curve" smooth="yes"/>
      <point x="499" y="-21"/>
      <point x="498" y="-8"/>
      <point x="496" y="5" type="curve"/>
      <point x="511" y="2"/>
      <point x="525" y="0"/>
      <point x="540" y="0" type="curve" smooth="yes"/>
      <point x="582" y="0"/>
      <point x="620" y="15"/>
      <point x="647" y="59" type="curve" smooth="yes"/>
      <point x="667" y="92"/>
      <point x="674" y="136"/>
      <point x="667" y="189" type="curve"/>
      <point x="652" y="197" type="line"/>
      <point x="642" y="147"/>
      <point x="604" y="106"/>
      <point x="546" y="106" type="curve" smooth="yes"/>
      <point x="480" y="106"/>
      <point x="449" y="140"/>
      <point x="417" y="180" type="curve"/>
      <point x="379" y="82" type="line"/>
      <point x="412" y="30"/>
      <point x="457" y="-33"/>
      <point x="457" y="-33" type="curve"/>
      <point x="444" y="-67"/>
      <point x="398" y="-120"/>
      <point x="285" y="-120" type="curve" smooth="yes"/>
      <point x="227" y="-120"/>
      <point x="186" y="-106"/>
      <point x="159" y="-87" type="curve" smooth="yes"/>
      <point x="110" y="-53"/>
      <point x="105" y="-2"/>
      <point x="105" y="18" type="curve" smooth="yes"/>
      <point x="105" y="59"/>
      <point x="125" y="98"/>
      <point x="139" y="115" type="curve"/>
      <point x="123" y="131" type="line"/>
      <point x="103" y="108"/>
      <point x="90" y="81"/>
      <point x="82" y="57" type="curve" smooth="yes"/>
      <point x="67" y="12"/>
      <point x="66" y="-37"/>
      <point x="66" y="-48" type="curve" smooth="yes"/>
    </contour>
    <contour>
      <point x="389" y="0" type="move" name="caret_1"/>
    </contour>
    <contour>
      <point x="607" y="-55" type="move" name="bottom_1"/>
    </contour>
    <contour>
      <point x="541" y="197" type="move" name="top_1"/>
    </contour>
    <contour>
      <point x="249" y="-23" type="move" name="top_2"/>
    </contour>
    <contour>
      <point x="272" y="-268" type="move" name="bottom_2"/>
    </contour>
  </outline>
</glyph>
<glyph name="dots.horz.below-ar" format="1">
  <advance width="0"/>
  <outline>
    <contour>
      <point x="85" y="-97"/>
      <point x="70" y="-114"/>
      <point x="57" y="-129" type="curve"/>
      <point x="43" y="-113"/>
      <point x="20" y="-95"/>
      <point x="1" y="-85" type="curve"/>
      <point x="-8" y="-97"/>
      <point x="-23" y="-114"/>
      <point x="-36" y="-129" type="curve"/>
      <point x="-50" y="-113"/>
      <point x="-73" y="-95"/>
      <point x="-92" y="-85" type="curve"/>
      <point x="-104" y="-102"/>
      <point x="-129" y="-131"/>
      <point x="-145" y="-147" type="curve"/>
      <point x="-124" y="-159"/>
      <point x="-105" y="-176"/>
      <point x="-81" y="-201" type="curve"/>
      <point x="-61" y="-181"/>
      <point x="-49" y="-168"/>
      <point x="-39" y="-155" type="curve"/>
      <point x="-23" y="-167"/>
      <point x="-7" y="-181"/>
      <point x="12" y="-201" type="curve"/>
      <point x="32" y="-181"/>
      <point x="44" y="-168"/>
      <point x="54" y="-155" type="curve"/>
      <point x="70" y="-167"/>
      <point x="86" y="-181"/>
      <point x="105" y="-201" type="curve"/>
      <point x="133" y="-174"/>
      <point x="145" y="-158"/>
      <point x="158" y="-140" type="curve"/>
      <point x="146" y="-121"/>
      <point x="117" y="-97"/>
      <point x="94" y="-85" type="curve"/>
    </contour>
    <contour>
      <point x="1" y="-65" type="move" name="_bottom"/>
    </contour>
    <contour>
      <point x="-3" y="-200" type="move" name="bottom"/>
    </contour>
  </outline>
</glyph>
<glyph name="four-ar.center" format="1">
  <advance width="0"/>
  <outline>
    <contour>
      <point x="17" y="350"/>
      <point x="-3" y="365"/>
      <point x="-23" y="365" type="curve" smooth="yes"/>
      <point x="-39" y="365"/>
      <point x="-51" y="357"/>
      <point x="-59" y="345" type="curve" smooth="yes"/>
      <point x="-68" y="330"/>
      <point x="-70" y="311"/>
      <point x="-64" y="294" type="curve" smooth="yes"/>
      <point x="-57" y="273"/>
      <point x="-48" y="253"/>
      <point x="-40" y="220" type="curve" smooth="yes"/>
      <point x="-33" y="193"/>
      <point x="-26" y="157"/>
      <point x="-22" y="106" type="curve"/>
      <point x="-18" y="106" type="line"/>
      <point x="-18" y="106"/>
      <point x="-6" y="131"/>
      <point x="-5" y="155" type="curve" smooth="yes"/>
      <point x="-4" y="194"/>
      <point x="-8" y="223"/>
      <point x="-14" y="246" type="curve" smooth="yes"/>
      <point x="-21" y="275"/>
      <point x="-30" y="296"/>
      <point x="-34" y="318" type="curve"/>
      <point x="-26" y="320"/>
      <point x="11" y="320"/>
      <point x="21" y="276" type="curve"/>
      <point x="27" y="273" type="line"/>
      <point x="33" y="295"/>
      <point x="47" y="316"/>
      <point x="69" y="318" type="curve"/>
      <point x="69" y="318"/>
      <point x="78" y="365"/>
      <point x="78" y="365" type="curve"/>
      <point x="57" y="361"/>
      <point x="37" y="349"/>
      <point x="29" y="324" type="curve"/>
    </contour>
    <contour>
      <point x="-4" y="272" type="move" name="_center"/>
    </contour>
  </outline>
</glyph>
